<?xml version="1.0" encoding="utf-8"?>
<svg xmlns="http://www.w3.org/2000/svg" id="Layer_2" viewBox="0 0 4797.73 3659.46">
  <defs>
    <style>.cls-1{fill:none;}.cls-2{clip-path:url(#clippath);}.cls-3{fill:#f54cd3;}.cls-4{fill:#f54dcc;}.cls-5{fill:#f54dd0;}.cls-6{fill:#6b26d9;}.cls-7{fill:#00a6f4;}.cls-8{fill:#6b00ce;}.cls-9{fill:#e92d7a;}.cls-10{fill:#f44fc5;}.cls-11{fill:#6c25db;}.cls-12{fill:#64a3ff;}.cls-13{fill:#6d01c8;}.cls-14{fill:#9935f9;}.cls-15{fill:#00a0ff;}.cls-16{fill:#d065f1;}.cls-17{fill:#d067e8;}.cls-18{fill:#c25086;}.cls-19{fill:#cd498c;}.cls-20{fill:#116ecd;}.cls-21{fill:#116ecb;}.cls-22{fill:#0fa9e5;}.cls-23{fill:#0fd1fe;}.cls-24{fill:#1178fb;}.cls-25{fill:#156aaa;}.cls-26{fill:#1687ed;}.cls-27{fill:#2487b0;}.cls-28{fill:#2485b0;}.cls-29{fill:#1e89b1;}.cls-30{fill:#2222f4;}.cls-31{fill:#2288ae;}.cls-32{fill:#2278ff;}.cls-33{fill:#2179ff;}.cls-34{fill:#069aff;}.cls-35{fill:#41c2d2;}.cls-36{fill:#0f7af6;}.cls-37{fill:#0dd1ff;}.cls-38{fill:#41c4c6;}.cls-39{fill:#42c4c2;}.cls-40{fill:#42c4c4;}.cls-41{fill:#43c5c3;}.cls-42{fill:#42e6f7;}.cls-43{fill:#1a7bff;}.cls-44{fill:#6f00cf;}.cls-45{fill:#43d7f9;}.cls-46{fill:#8861d8;}.cls-47{fill:#2bb673;}.cls-48{fill:#2ac8ff;}.cls-49{fill:#2ccdcd;}.cls-50{fill:#2ccdd0;}</style>
    <clipPath id="clippath">
      <polygon class="cls-1" id="Color_-_2" points="4401.94 0 4014.62 0 3291.44 0 2895.15 518.8 2397.7 1170 2036.07 1643.66 1809.42 1940.4 723.69 518.8 1742.66 518.8 1461.12 887.44 1822.76 1361.11 2465.76 519.21 2466.03 518.8 2862.33 0 395.8 0 0 518.38 1447.64 2414.06 1809.42 2887.62 2171.05 2414.06 2397.7 2117.22 2759.34 1643.56 3618.42 518.8 4074.05 518.8 2987.23 1941.84 2398.74 2712.16 2037.01 3185.67 2398.8 3659.46 2987.23 2889.06 3348.87 2415.5 4797.73 518.38 4401.94 0"/>
    </clipPath>
  </defs>
  <g id="Layer_2-2">
    <g class="cls-2">
      <polygon class="cls-3" points="2571.76 380.38 1710.76 0 2862.33 0 2571.76 380.38"/>
      <polygon class="cls-46" points="1710.76 0 828.26 518.8 2039.39 145.19 1710.76 0"/>
      <polygon class="cls-44" points="2039.39 145.19 1742.66 518.8 828.26 518.8 2039.39 145.19"/>
      <polygon class="cls-18" points="1742.66 518.8 2286.54 462.76 2039.39 145.19 1742.66 518.8"/>
      <polygon class="cls-9" points="2039.39 145.19 2571.76 380.38 2286.54 462.76 2039.39 145.19"/>
      <polygon class="cls-17" points="2571.76 380.38 2286.54 462.76 1822.76 1361.11 2571.76 380.38"/>
      <polygon class="cls-4" points="1742.66 518.8 1822.76 1361.11 1461.12 887.44 1742.66 518.8"/>
      <polygon class="cls-11" points="1742.66 518.8 2032.32 955.2 1822.76 1361.11 1742.66 518.8"/>
      <polygon class="cls-14" points="1742.66 518.8 2286.54 462.76 1898.26 753.21 1742.66 518.8"/>
      <polygon class="cls-46" points="1898.26 753.21 2286.54 462.76 2032.32 955.2 1898.26 753.21"/>
      <polygon class="cls-6" points="828.26 518.8 395.8 0 652.79 0 828.26 518.8"/>
      <polygon class="cls-18" points="652.79 0 1197.26 0 751.62 292.2 652.79 0"/>
      <polygon class="cls-44" points="828.26 518.8 1003.53 127.02 751.62 292.2 828.26 518.8"/>
      <polygon class="cls-17" points="1003.53 127.02 1494.69 127.02 828.26 518.8 1003.53 127.02"/>
      <polygon class="cls-3" points="1003.53 127.02 1710.76 0 1197.26 0 1003.53 127.02"/>
      <polygon class="cls-9" points="1003.53 127.02 1710.76 0 1494.69 127.02 1003.53 127.02"/>
      <polygon class="cls-5" points="395.8 0 351.65 978.87 0 518.38 395.8 0"/>
      <polygon class="cls-17" points="351.65 978.87 723.69 518.8 362.03 748.83 351.65 978.87"/>
      <polygon class="cls-16" points="723.69 518.8 701.06 366.2 828.26 518.8 723.69 518.8"/>
      <polygon class="cls-19" points="723.69 518.8 384.1 259.4 362.03 748.83 723.69 518.8"/>
      <polygon class="cls-9" points="723.69 518.8 395.8 0 384.1 259.4 723.69 518.8"/>
      <polygon class="cls-10" points="395.8 0 701.06 366.2 723.69 518.8 395.8 0"/>
      <polygon class="cls-46" points="723.69 518.8 904.23 1702.46 652.79 1373.2 723.69 518.8"/>
      <polygon class="cls-14" points="351.65 978.87 542.86 924.23 693.62 881.14 723.69 518.8 351.65 978.87"/>
      <polygon class="cls-13" points="652.79 1373.2 542.86 924.23 351.65 978.87 652.79 1373.2"/>
      <polygon class="cls-17" points="693.62 881.14 542.86 924.23 652.79 1373.2 693.62 881.14"/>
      <polygon class="cls-14" points="723.69 518.8 1255.85 2162.9 904.23 1702.46 723.69 518.8"/>
      <polygon class="cls-8" points="962.9 1257.86 1146.37 1072.23 723.69 518.8 962.9 1257.86"/>
      <polygon class="cls-24" points="1092.07 1127.17 1101.86 1687.17 962.9 1257.86 1092.07 1127.17"/>
      <polygon class="cls-25" points="1101.86 1687.17 1146.37 1072.23 1092.07 1127.17 1101.86 1687.17"/>
      <polygon class="cls-20" points="1146.37 1072.23 1415.1 1424.1 1117.44 1471.88 1146.37 1072.23"/>
      <polygon class="cls-37" points="1101.86 1687.17 1415.1 1424.1 1117.44 1471.88 1101.86 1687.17"/>
      <polygon class="cls-39" points="1101.86 1687.17 1809.42 1940.4 1415.1 1424.1 1101.86 1687.17"/>
      <polygon class="cls-32" points="1255.85 2162.9 1521.39 1837.32 1101.86 1687.17 1255.85 2162.9"/>
      <polygon class="cls-23" points="1255.85 2162.9 1809.42 1940.4 1521.39 1837.32 1255.85 2162.9"/>
      <polygon class="cls-42" points="1809.42 1940.4 1809.42 2887.62 1255.85 2162.9 1809.42 1940.4"/>
      <polygon class="cls-45" points="1809.42 1940.4 1958.05 2692.98 1809.42 2887.62 1809.42 1940.4"/>
      <path class="cls-20" d="m1809.42,1940.4l357.81-468.52c-90.84,300.14-181.67,600.27-272.51,900.41-28.43-143.96-56.86-287.93-85.3-431.89Z"/>
      <polygon class="cls-42" points="1894.71 2372.29 2975.07 1361.11 1958.05 2692.98 1894.71 2372.29"/>
      <path class="cls-40" d="m2167.22,1471.88l378.18,291.39c-176.58,69.82-353.15,139.64-529.73,209.46,50.52-166.95,101.03-333.9,151.55-500.85Z"/>
      <polygon class="cls-37" points="2015.68 1972.73 1894.71 2372.29 2545.4 1763.27 2015.68 1972.73"/>
      <polygon class="cls-40" points="2545.4 1763.27 3618.42 518.8 2975.07 1361.11 2545.4 1763.27"/>
      <polygon class="cls-47" points="2167.22 1471.88 2724.43 1555.63 2545.4 1763.27 2167.22 1471.88"/>
      <polygon class="cls-25" points="2167.22 1471.88 2724.43 1555.63 2545.4 1763.27 2167.22 1471.88"/>
      <polygon class="cls-50" points="2724.43 1555.63 2724.43 742.28 2384.44 1504.53 2724.43 1555.63"/>
      <polygon class="cls-34" points="2167.22 1471.88 2724.43 742.28 2384.44 1504.53 2167.22 1471.88"/>
      <polygon class="cls-12" points="2724.43 742.28 3618.42 518.8 2724.43 1148.96 2724.43 742.28"/>
      <polygon class="cls-42" points="2724.43 1555.63 2724.43 1148.96 3618.42 518.8 2724.43 1555.63"/>
      <polygon class="cls-27" points="3261.63 607.99 3291.44 0 2724.43 742.28 3261.63 607.99"/>
      <polygon class="cls-26" points="3277.11 292.2 3618.42 518.8 3261.63 607.99 3277.11 292.2"/>
      <polygon class="cls-30" points="3494.43 436.48 3291.44 0 3277.11 292.2 3494.43 436.48"/>
      <polygon class="cls-22" points="3618.42 518.8 3291.44 0 3494.43 436.48 3618.42 518.8"/>
      <polygon class="cls-26" points="3618.42 518.8 3950.55 0 3291.44 0 3618.42 518.8"/>
      <polygon class="cls-31" points="4074.05 518.8 3738.01 331.99 3618.42 518.8 4074.05 518.8"/>
      <polygon class="cls-30" points="4074.05 518.8 3950.55 0 3738.01 331.99 4074.05 518.8"/>
      <polygon class="cls-22" points="4074.05 518.8 4634.03 303.97 3988.64 160.02 4074.05 518.8"/>
      <polygon class="cls-28" points="3950.55 0 4249.66 218.24 3988.64 160.02 3950.55 0"/>
      <polygon class="cls-12" points="4401.94 0 4249.66 218.24 3950.55 0 4401.94 0"/>
      <polygon class="cls-26" points="4401.94 0 4634.03 303.97 4249.66 218.24 4401.94 0"/>
      <polygon class="cls-29" points="4634.03 303.97 4268.11 1211.86 4797.73 518.38 4634.03 303.97"/>
      <polygon class="cls-20" points="4074.05 518.8 4268.11 1211.86 4457.37 742.28 4074.05 518.8"/>
      <polygon class="cls-12" points="4355.72 410.74 4249.66 621.18 4074.05 518.8 4355.72 410.74"/>
      <polygon class="cls-26" points="4355.72 410.74 4457.37 742.28 4249.66 621.18 4355.72 410.74"/>
      <polygon class="cls-30" points="4634.03 303.97 4355.72 410.74 4457.37 742.28 4634.03 303.97"/>
      <polygon class="cls-25" points="2037.01 3185.67 3802.61 1471.88 3516.65 1248.63 2037.01 3185.67"/>
      <polygon class="cls-45" points="2398.8 3659.46 2544.59 2692.98 2037.01 3185.67 2398.8 3659.46"/>
      <path class="cls-38" d="m2398.8,3659.46l352.36-461.33c-98.37,26.05-196.73,52.09-295.1,78.14-19.09,127.73-38.18,255.46-57.27,383.19Z"/>
      <polygon class="cls-42" points="2544.59 2692.98 2751.16 3198.13 2456.06 3276.27 2544.59 2692.98"/>
      <polygon class="cls-48" points="2751.16 3198.13 3369.51 2388.47 2544.59 2692.98 2751.16 3198.13"/>
      <polygon class="cls-42" points="3053.26 2199.24 3171.42 2461.59 2817.85 2592.11 3053.26 2199.24"/>
      <polygon class="cls-33" points="3053.26 2199.24 2817.85 2592.11 2544.59 2692.98 3053.26 2199.24"/>
      <polygon class="cls-41" points="3802.61 1471.88 3171.42 2461.59 3053.26 2199.24 3802.61 1471.88"/>
      <polygon class="cls-21" points="3802.61 1471.88 3369.51 2388.47 3171.42 2461.59 3802.61 1471.88"/>
      <polygon class="cls-37" points="3802.61 1471.88 4082.71 1454.63 3777.78 1853.89 3802.61 1471.88"/>
      <polygon class="cls-43" points="3607.7 1884.37 3777.78 1853.89 3802.61 1471.88 3607.7 1884.37"/>
      <polygon class="cls-7" points="3607.7 1884.37 3777.78 1853.89 3369.51 2388.47 3607.7 1884.37"/>
      <polygon class="cls-36" points="3516.65 1248.63 4082.71 1454.63 3802.61 1471.88 3516.65 1248.63"/>
      <polygon class="cls-20" points="3516.65 1248.63 4268.11 1211.86 4082.71 1454.63 3516.65 1248.63"/>
      <polygon class="cls-49" points="4074.05 518.8 3846.24 1232.51 3516.65 1248.63 4074.05 518.8"/>
      <path class="cls-15" d="m3846.24,1232.51c36.13-1.77,345.74-292.55,345.74-292.55l-203.33-153.59-142.41,446.14Z"/>
      <polygon class="cls-42" points="4044.68 1074.84 4268.11 1211.86 4191.97 939.95 4044.68 1074.84"/>
      <polygon class="cls-35" points="4044.68 1074.84 3846.24 1232.51 4268.11 1211.86 4044.68 1074.84"/>
      <polygon class="cls-37" points="4074.05 518.8 4191.97 939.95 3988.64 786.36 4074.05 518.8"/>
      <polygon class="cls-42" points="3516.65 1248.63 2832 2414.01 2037.01 3185.67 3516.65 1248.63"/>
    </g>
  </g>
</svg>